<svg version="1.2" xmlns="http://www.w3.org/2000/svg" viewBox="0 0 445 348" width="445" height="348">
	<title>2040401-ai</title>
	<defs>
		<clipPath clipPathUnits="userSpaceOnUse" id="cp1">
			<path d="m478 425h-500v-500h500z"/>
		</clipPath>
		<radialGradient id="g1" cx="0" cy="0" r="1" gradientUnits="userSpaceOnUse" gradientTransform="matrix(183.052,183.052,-183.052,183.052,146.374,-17.922)">
			<stop offset="0" stop-color="#858585"/>
			<stop offset="1" stop-color="#b8b8b8"/>
		</radialGradient>
		<linearGradient id="g2" x2="1" gradientUnits="userSpaceOnUse" gradientTransform="matrix(37.286,80.786,-273.121,126.056,138.54,24.433)">
			<stop offset="0" stop-color="#b8b8b8"/>
			<stop offset=".651" stop-color="#e3e3e3"/>
			<stop offset="1" stop-color="#b8b8b8"/>
		</linearGradient>
		<linearGradient id="g3" x2="1" gradientUnits="userSpaceOnUse" gradientTransform="matrix(32.325,90.047,-233.737,83.905,352.166,237.575)">
			<stop offset="0" stop-color="#b8b8b8"/>
			<stop offset=".651" stop-color="#e3e3e3"/>
			<stop offset="1" stop-color="#b8b8b8"/>
		</linearGradient>
		<linearGradient id="g4" x2="1" gradientUnits="userSpaceOnUse" gradientTransform="matrix(-20.844,52.724,-36.453,-14.412,451.487,28.758)">
			<stop offset="0" stop-color="#b8b8b8"/>
			<stop offset=".651" stop-color="#e3e3e3"/>
			<stop offset="1" stop-color="#b8b8b8"/>
		</linearGradient>
		<linearGradient id="g5" x2="1" gradientUnits="userSpaceOnUse" gradientTransform="matrix(-30.994,56.309,-131.111,-72.166,126.485,231.57)">
			<stop offset="0" stop-color="#b8b8b8"/>
			<stop offset=".651" stop-color="#e3e3e3"/>
			<stop offset="1" stop-color="#b8b8b8"/>
		</linearGradient>
		<linearGradient id="g6" x2="1" gradientUnits="userSpaceOnUse" gradientTransform="matrix(104.481,104.481,-15.598,15.598,111.211,-37.586)">
			<stop offset="0" stop-color="#ffffff"/>
			<stop offset="1" stop-color="#000000"/>
		</linearGradient>
		<linearGradient id="g7" x2="1" gradientUnits="userSpaceOnUse" gradientTransform="matrix(109.09,109.09,-33.659,33.659,110.233,-42.981)">
			<stop offset="0" stop-color="#ffffff"/>
			<stop offset="1" stop-color="#000000"/>
		</linearGradient>
		<linearGradient id="g8" x2="1" gradientUnits="userSpaceOnUse" gradientTransform="matrix(.281,.281,-0.355,.355,188.101,46.82)">
			<stop offset="0" stop-color="#ffffff"/>
			<stop offset="1" stop-color="#000000"/>
		</linearGradient>
		<linearGradient id="g9" x2="1" gradientUnits="userSpaceOnUse" gradientTransform="matrix(.193,.193,-0.515,.515,.712,93.203)">
			<stop offset="0" stop-color="#ffffff"/>
			<stop offset="1" stop-color="#000000"/>
		</linearGradient>
		<linearGradient id="g10" x2="1" gradientUnits="userSpaceOnUse" gradientTransform="matrix(.447,.447,-0.108,.108,187.793,46.407)">
			<stop offset="0" stop-color="#ffffff"/>
			<stop offset="1" stop-color="#000000"/>
		</linearGradient>
		<linearGradient id="g11" x2="1" gradientUnits="userSpaceOnUse" gradientTransform="matrix(110.502,110.502,-24.876,24.876,-9.519,81.475)">
			<stop offset="0" stop-color="#ffffff"/>
			<stop offset="1" stop-color="#000000"/>
		</linearGradient>
		<linearGradient id="g12" x2="1" gradientUnits="userSpaceOnUse" gradientTransform="matrix(.839,.839,-0.423,.423,16.317,105.299)">
			<stop offset="0" stop-color="#ffffff"/>
			<stop offset="1" stop-color="#000000"/>
		</linearGradient>
		<linearGradient id="g13" x2="1" gradientUnits="userSpaceOnUse" gradientTransform="matrix(1.166,1.166,-2.877,2.877,1.266,91.792)">
			<stop offset="0" stop-color="#ffffff"/>
			<stop offset="1" stop-color="#000000"/>
		</linearGradient>
		<linearGradient id="g14" x2="1" gradientUnits="userSpaceOnUse" gradientTransform="matrix(313.985,313.985,-898.013,898.013,26.512,-87.387)">
			<stop offset="0" stop-color="#ffffff"/>
			<stop offset="1" stop-color="#000000"/>
		</linearGradient>
		<linearGradient id="g15" x2="1" gradientUnits="userSpaceOnUse" gradientTransform="matrix(1.019,1.019,-1.213,1.213,385.979,241.299)">
			<stop offset="0" stop-color="#ffffff"/>
			<stop offset="1" stop-color="#000000"/>
		</linearGradient>
		<linearGradient id="g16" x2="1" gradientUnits="userSpaceOnUse" gradientTransform="matrix(58.104,58.104,-41.526,41.526,380.351,215.64)">
			<stop offset="0" stop-color="#ffffff"/>
			<stop offset="1" stop-color="#000000"/>
		</linearGradient>
		<linearGradient id="g17" x2="1" gradientUnits="userSpaceOnUse" gradientTransform="matrix(57.572,57.572,-31.695,31.695,366.441,230.016)">
			<stop offset="0" stop-color="#ffffff"/>
			<stop offset="1" stop-color="#000000"/>
		</linearGradient>
		<linearGradient id="g18" x2="1" gradientUnits="userSpaceOnUse" gradientTransform="matrix(60.784,60.784,-31.19,31.19,355.455,236.045)">
			<stop offset="0" stop-color="#ffffff"/>
			<stop offset="1" stop-color="#000000"/>
		</linearGradient>
		<linearGradient id="g19" x2="1" gradientUnits="userSpaceOnUse" gradientTransform="matrix(1.011,1.011,-0.532,.532,399.351,279.457)">
			<stop offset="0" stop-color="#ffffff"/>
			<stop offset="1" stop-color="#000000"/>
		</linearGradient>
		<linearGradient id="g20" x2="1" gradientUnits="userSpaceOnUse" gradientTransform="matrix(106.433,106.433,-176.353,176.353,316.323,265.509)">
			<stop offset="0" stop-color="#ffffff"/>
			<stop offset="1" stop-color="#000000"/>
		</linearGradient>
		<radialGradient id="g21" cx="0" cy="0" r="1" gradientUnits="userSpaceOnUse" gradientTransform="matrix(68.866,68.866,-68.866,68.866,53.886,228.319)">
			<stop offset="0" stop-color="#ffffff"/>
			<stop offset="1" stop-color="#000000"/>
		</radialGradient>
		<linearGradient id="g22" x2="1" gradientUnits="userSpaceOnUse" gradientTransform="matrix(-11.249,28.454,-20.445,-8.083,405.291,11.452)">
			<stop offset="0" stop-color="#ffffff"/>
			<stop offset="1" stop-color="#000000"/>
		</linearGradient>
	</defs>
	<style>
		tspan { white-space:pre } 
		.s0 { fill: url(#g1) } 
		.s1 { fill: url(#g2) } 
		.s2 { fill: url(#g3) } 
		.s3 { fill: url(#g4) } 
		.s4 { fill: url(#g5) } 
		.s5 { fill: url(#g6) } 
		.s6 { fill: url(#g7) } 
		.s7 { fill: url(#g8) } 
		.s8 { fill: url(#g9) } 
		.s9 { fill: url(#g10) } 
		.s10 { fill: url(#g11) } 
		.s11 { fill: url(#g12) } 
		.s12 { fill: url(#g13) } 
		.s13 { fill: url(#g14) } 
		.s14 { fill: url(#g15) } 
		.s15 { fill: url(#g16) } 
		.s16 { fill: url(#g17) } 
		.s17 { fill: url(#g18) } 
		.s18 { fill: url(#g19) } 
		.s19 { fill: url(#g20) } 
		.s20 { mix-blend-mode: screen;fill: url(#g21) } 
		.s21 { mix-blend-mode: screen;fill: url(#g22) } 
	</style>
	<g id="BACKGROUND 1">
		<g id="&lt;Clip Group&gt;" clip-path="url(#cp1)">
			<g id="&lt;Group&gt;">
				<g id="&lt;Group&gt;">
					<g id="&lt;Group&gt;">
						<g id="&lt;Group&gt;">
							<path id="&lt;Path&gt;" class="s0" d="m21.6 110.8c0 1.2 1.1-0.2 3-1.3 1.9-1.7 158.8-65 158.8-64.2 0-0.2 1.9 2.8 4.9 1.6 1.5 0.3 3.3 0 5.3 1.3 2 3.2 4.1 1.6 6.4 2.7 2.2 1.1 4.6 1.7 6.9 2.4 2.4 2.9 4.7-2.4 7 2.4 4.5 2.6 8.6 1.2 11.6 4 3 3.6 4.9-0.5 4.9 1.6 0 1.2 0.9 3.3 1.8 8.7 1 5.7 1.9 8.6 1.9 8.6l17.3 2.5c0 0 1.5 3.1 3.1 6.2 1.5 3.1 6.1 6.9 3.1 6.2 3 0.7 15.2 3.4 5.8 0.1 11.6 3.3 14.7 4.8 12.7 0.5 2.1 4.3 2.2 4.3 6.8 0.2-4.5 4.1-3.8 3.9 5.9 0.2-9.6 3.7-5.3 2.6 6.3-0.4-10.5 2.9-11.1 3.1-0.5 0.6-10.6 2.5 6.7-1.7 9-2.2 2.2-0.5 2.5-0.3-2.2 1.2 11-3.4 12.1-3.9 12.5-1.8-0.4-2.2-0.2-2.2 6.7-0.9-6.9-1.3-4.2-1.2 8 3.1-8.1-2.9-6.6-3.1-1.5-1.2 2.5 0.9 6 3.3 9.5 4.3-2.6-1.6-4.1-5.8-4.6-2.9-0.5 1.1-0.1-0.7 0.8-0.7 1-2.5 2.6-0.4 4.5 0.5 1.8-0.1 4 0.2 6.1 0.5-0.8-6.4-0.6 1.5 0.1-2.6 0.7-2.8 2 1 3.6-0.1 1.5-0.8 3.2-2.6 4.8-2.2 1.5 0 3-4.6 4 0.1 1.9-1.2 3.6 1.3 4.8-1.8 1.2 0.9 1.9-3 1.9-0.7 0 2-0.1-0.6-0.2-1.4-0.1-2.6-0.3-0.9-0.4-6-0.2-1.7-0.3-3.1-0.5-4.5-0.1 0.8-0.2-2.7-0.2-2.9 0-2.1 1.1 0.3 2.6-1.2 1.5-1.4 3.5 0.4 5.5-2.6 2 0.9 4-5.3 5.5-2.6 1.5-1.6 2.5 1.5 2.5-1.1 0 1.9-0.5-2.6-1.3-2.8-0.9-3.4-1.9-4-3-1.5-2.2 0.1-4.3-5.2-4.3-4.3 0-0.3 0.2-0.8 0.5-0.9 0.4-1.6 0.8-3.3 1.4-6.2 0.5-2.2 1.2-2.6 1.8-6.9 0.6-3.7 1.2-4.8 1.8-6.1 0.5-2.2 1-4.1 1.3-5.4 0.4-1.3 0.6-1.9 0.6-1.7 0-1.9 17.6 22.3 19.1 26.3 1.6 2 3.2 3.4 4.8 7.2 1.6 0.7 3.3 4 5 6.1 1.7 2.1 3.4 4.5 5 8 3.4-1.3 6.8 7.8 10.1 14.1 3.3 0.4 6.4 7.6 9.2 12.9 2.9 1.3 5.5 13.2 7.7 10.6 2.1 1.9 3.9 3 5.1 7.3 1.2 0.9 1.9-0.1 1.9 2.6 0-1.8-0.3 3.1-0.6 6.2-0.3 3.1-0.6 6.2-0.6 6.2 0 0-2.2 1.1-5.1 2.6-3 1.4-6.3 5.8-9.6 4.7-1.9 3.7-3.5 5.2-5.1 2.6 1.6 2.6 8.2 14.5 1.7 6 7 10.5 10.3 18.5 3.2 11.2 7.1 7.3 7.3 12.3 1.8 6.1 5.5 6.2 5.5 9.8-1.2 3.8 6.7 6 6.1 12.1-3.1 9.7 9 3 3.4 7.6-4.2 13.3 3-0.3 2.2 2.1 0.5 5.2-1.7 3.1-0.6 15.8-5.1 9.3 1.8 4.6 2.5 10.4 3.6 10.4-1 3.2-1.8 2-5.7-3.5 2.4 4.2 0.8 11.6 5.6 7.3-3.7 6.3-6 8.9-0.5 1.9-6.7 6.8-8.7 7.7-7.1-2.8-1.6 10.5-1.1 11.5 6.4 4.2-7 8-9.3 10.2-1.3 2.6-8.6 7.9-10.5 9.5-8.2 2.9-2.3 6.6-1.3 5.9 6.7-0.6-8.1 6.6-9.3 7.4-7.9 4.4-1.4 3-1.3 2.9 1.7-1.3-1.5 2.1-2.3 3.2-3.3 3.5-1 1.7-2.2-0.6-4.5-0.9 2.3 3.4 3.3 1.7 2.6 1.4-0.7 2.2-3.2 3.8-7.9-0.3 4.5 1.2 5.7 0.1 4.4 0.6-1.3 1.4-5.1-1-10.4 0.7 4.3-1.4 3.2 0.4 0.8 0.5-2.4-2.6-6.1 1.7-6.9 0.7 1.6-1.6-0.8-0.2-1.8 4.4-1 3.4-1.9 3.2-1.9 4.3 0-1.1-0.8 2.2-1.9 7.7-1.1 4.2-2.5 16.7-3.6 14.3-1.1 0.6-1.9 3.3-1.9 7.6 0-1.2-2.8-0.5-5.6 0-2.7-0.1-5.5-5.6-5.5 0 0 1.5-2.6-0.8-6.1 2.3-3.5 1.7-7.8 10.4-11.3 4.2-3.5 3.4-6.1 2.1-6.1 2.2 0 0.2 0.3 5.1 0.6 4.9 0.3 4.1 0.6 8.3 0.6 5 0 4.3-2.4 3.6-4.9 2.5-2.5 3.3-4.9 1.1-4.9 2.4 0-1.3-2.2 5.1-4.4-1.8-2.1-0.9-4.3-1.4-4.3-1.9 0-0.5-2.2-6.9-5.6 1.8-3.3 4.7-7.8 4-12.3 3.8-4.5 3-9 3.9-12.3 3.8-3.4-0.3-5.6 4.8-5.6 1.7 0 5.8-2.2 3.8-5.1 5.2-3 4-6.6 3.3-9.6 9.5-2.9 11.3-5.1 0.3-5.1 5.1 0 1.1-3 0.2-7-1.9-4.1-1.2-9.1-6.2-13.1-3.6-4-4-7.1 4.2-7.1-1.9 0 0-0.1-2.9-0.3-1.9-0.3-2.7-0.6-6.2-0.9-4.8-0.4-3.8-0.8-9.6-1.2-7.6-0.4-2.2-0.9-4-1.2-4.9-0.8-3.5-1.3-3-1.3-6.8 0-1.5-1.4-5.7-3.6-4.2-2.2-7.1-5.3-2.3-8.6-10.1-3.3-4-6.9-13.8-10.2-12.1-3.3-4.2-6.4-8.4-8.6-10.1-2.2-1.3-3.6-3-3.6-4.2 0-0.6-0.7 0.2-1.7 1.6-1.1 1.4-2.5 3.4-3.9 5.2-1.3 1-2.7 5.1-3.8 4.6-1 5.1-1.7 1.6-1.7 2.2 0-0.3-2.4-2.2-5.7-1-3.2-1.3-7.2 0.8-10.4-1.8-3.3 1.8-5.7 0.2-5.7-1 0-1.2-3.2-1-6.4 5.6-3.2 6.3-6.4 4.7-6.4 5.6 0-2.4-3.1-1.3-6.2-1.9-3.1-0.9-6.2-4.4-6.2-1.8 0 1.9-2.7-5.7-5.5-6.2-2.8-1.2-4.8-4.2-4.8-4 0-0.7 0-1.9-0.8-2.2-0.7-0.2-2-0.7-4.3-1.2-2.2-0.8-4.3-2.4-4.3-1.3 0 0.2-0.7 0.1-1.8-0.3-1.1-0.3-2.6-0.8-4.3-1.3-3.5 0.4-7.8-2.6-11.3-2.9-3.5-1.1-6.1-3.5-6.1-1.6 0-0.3-2.1 3.5-4.8-4.2-2.8-1.2-6.2-5-8.9-7.7-1.4-3.9-2.6-6.6-3.5-5.8-0.8-0.2-1.3-1.7-1.3 1.6 0 5.6-0.6 2.4-1.5 0.9-0.9 1.1-2.2-2.1-3.7 2-1.4-1.5-3.1 1.9-4.7 1.8-1.7 1.7-3.3 2.3-4.8 3.5-2.9 1.5-5.1 4.9-5.1 2.9 0 4.9-0.3-0.6-0.6-5.5-0.3-4.6-0.6-1.9-0.6-5.6-0.9-3.2-2-5.8-3.4-2.6-1.4 4.1-3.1-2.7-4.9-0.6-2.4-0.1-5 0.8-7.6 1-2.6-2.9-5.3 0-7.6 1.9-2.4-1.4-4.5 0.9-6.2 1.5-2.5 1.4-4.5-0.2-6.2-3.9-1.6-1.4-2.9-5.9-3.7-8.6-0.8-2.7-1.2-4.8-1.2-4.8 0 0 4.3-2.4 8.6-4.9 2.2-1.2 4.4-2.5 6-3.4 1.6-0.6 2.7-2 2.7-1.5 0 0.2-0.5-0.8-1.3-0.3-0.9-1.2-2.1-0.3-3.5-0.7-1.5-0.9-3.2-0.9-5-1-1.8-0.4-3.7-0.7-5.7-1.1-2.5-0.5-5.1-1.1-7.4-1.5-2.3 0.8-4.3 0.8-5.7-1.2-1.4-1-2.3-1.7-2.3-0.4 0-0.4 0.5-0.1 1.5-1.1 0.9-0.3 2.3-1 3.9-2.8 1.6-1.6 3.5-2.3 5.5-3.9 1.1-1.4 2.1-2.1 3.2-2.8 1-0.9 2.1 0 3.2-1.8q1.6-3.7 3.2-2.1c0.5-0.8 1.1-1 1.6-1.1q0.8-0.3 1.5-1.3c1.1-0.7 2-0.9 3-0.7 0.4-0.9 0.9-2.1 1.3-1.5 0.5-0.5 0.9-0.5 1.3-1.8 0.4 0.4 0.8 1.9 1.1 1.4 0.4-0.4 0.8-0.5 1.1-2.1 0.7 0.8 1.2-2.4 1.7-2.1 0.5-0.9 0.8 0.1 1.1-0.2 0.3 1.1 0.4 1.6 0.4-0.8 0 0.4 0.4-1.8 1-2 0.3-0.6 0.7-0.2 1.1-2.3 0.4-0.5 0.9-2.7 1.4-2.8 0.3 0.7 0.5-0.2 0.8-1.2 0.3-1.2 0.5-1.7 0.8-2.2 0.3 0.1 0.6-2.3 0.8-1.9 0.3-1.8 0.6-1.8 0.9-1.2 0.3 0.2 0.5-1.9 0.8-1.7 0.3-2.3 0.6-0.5 0.9-1.8 0.2-1.3 0.5 0.4 0.8-1.9 0.2-0.8 0.5 0.4 0.8-1.2 0.5-2 0.9-0.3 1.4-2.7 0.4 0.5 0.8 1 1.1-2.3 0.6-1.3 1-2.4 1-2 0-1.9-0.2-1.4-0.4-2.7-0.1-1.9-0.3-1.8-0.4-2.9-0.1-0.1-0.3-2.4-0.5-3.1-0.1-0.1-0.3-1.2-0.4-2.2-0.2-0.6-0.3-2.2-0.4-3.7-0.2-0.7-0.4-2.8-0.4-2.7 0-1 0.4-2.2 1-3.8 0.5-1.9 1.2-4.2 1.8-7.2 0.5-3.6 0.9-3.3 0.9-3.8 0 0 0.5-0.8 1.2-1.8 0.7-1.1 1.6-2.5 2.5-3.8 1.9-2.6 3.7-9.1 3.7-5.5 0-3.2-2.3 1-5.4 1.2-3.1 0.3-7 4.4-10.1 2.4-3.1 4.3-5.5 0.5-5.5 1.3 0-3.6-2-2.5-4.8-1.3-2.7-0.4-6.2-3.9-8.9-2.4-2.8-2.3-4.8-1.2-4.8-1.2z"/>
						</g>
						<g id="&lt;Group&gt;">
						</g>
					</g>
					<g id="&lt;Group&gt;">
						<g id="&lt;Group&gt;">
						</g>
					</g>
					<path id="&lt;Path&gt;" class="s1" d="m21.6 110.8c0 1.3 0.9-2.3 2.6-0.7 1.7 0.9 164.1-63.4 164.1-63.2 0 1.2-2.4-2.2-4.9-7-2.4-2.8-4.9-4.2-4.9-7 0 1.7-2.8-1.6-5.6-3.1-2.7-5.3-5.5-3.3-5.5-3.1 0-1 0.9-3.2 1.8-7.4 1 2.2 1.9-6.3 1.9-7.4 0-1.5-3.7-6.6-7.4-5.5-3.7-6.3-7.4-2.4-7.4-5.6 0-2.3-1.3 1.7-3.1 4-1 2.4-2 6-3.2 4.2-1.2 3-2.4 6-3.6 4.8-1.3-0.1-2.5 4-3.7 4.5-1.1 3.5-2.2 2.6-3.1 4.4-1.9 3.5-3.1 2.2-3.1 4 0-3.4-2.6-0.6-6.1 3.6-3.5 0.3-7.8 6.8-11.3 6.5-3.5-3.1-6.1 2.7-6.1 3.5-4.1 0.5-7.8-3.8-10.9-2.5-3.1 2-5.6-0.6-7.4 0.5-1.7 1.5-2.7-3.9-2.7 0.8 0 0.3-1.8 2.3-4.6 3.5-2.8 3.5-6.5 8.7-10.2 7.6-3.7 2.3-7.4 1.9-10.2 7.7-2.8 6.8-4.6 6.8-4.6 3.4 0 0.7-2.2 2.7-5.2 2-2.9 3.5-6.6 6.5-9.5 3.5-2.9 2-5.1 2.1-5.1 1.9 0-2.1-1.7 2.6-4.4 2.6-2.7 0.4-6.4 6.3-10.4 6.1-2 1.2-4.1 2.3-6.2 3.5-2.1 1.6-4.2 1.5-6.2 3.9-2-1.7-4 0.1-5.7 2-1.8 1.8-3.4 1.8-4.7 4.1-2.7 1.5-4.4 2.5-4.4 2.6 0 0.6 0.6-2.1 1.5-0.9 1 1.6 2.4 4.7 3.9 5.3 1.6 5.4 3.3 2.1 5.1 5.4 1.7-2.3 3.5-2.6 5 3 1.6-0.6 3 2.4 3.9 2.8 1 1.5 1.6 2.8 1.6 1.7z"/>
					<path id="&lt;Path&gt;" class="s2" d="m379.2 259.3c0-3.2-0.6-4.5-1.6 0.7-1-0.1-2.6 1.1-4.5 2.1-2-0.5-4.3 2-7 3.3-21.6 10-65.4 30.4-95.4 44.4-4.6 2.1-8.9 4.1-12.7 5.9-3.8 0.3-7.2 2.3-10 4.6-2.8-0.2-5.1 1.7-6.6 3.1-1.5 0.7-2.4 1.1-2.4 1.1 0 0 1.7-0.8 4.1 3.5 2.4 2.7 5.7 8.4 8.9 7.6 3.3 1.2 6.5 6.1 8.9 7.7 2.5 2.1 4.1-0.7 4.1 3.4 0 1.5 4.3-0.4 8.6-2.4 4.4 0.8 8.7-5.2 8.7-2.5 0 0.6 4 2.4 8 0 4-0.3 8-0.3 8 0 0-3.1 1.6-2.9 3.1-6.8 1.6-2.8 3.1-8.8 3.1-6.8 0-0.2 2.3-1.9 5.5-2.9 3.1-4.5 7-0.7 10.1-5.3 3.1-5 5.4 0.3 5.4-2.9 0-1.4 2.4-3.4 5.5-1.6 3.1-3.4 7-4.1 10.1-3 3.1-0.6 5.4-7.9 5.4-1.6 0-0.1 2.4-0.7 5.5-3.2 3.1-2.8 7-2.5 10.1-6 3.1-1.6 5.4-6.9 5.4-3.2 0 3.6 2.2 0.7 5.4-1.7 1.7-0.4 3.5-1.4 5.6-2.1 2-4.2 4.2 0.6 6.3-1.7 2.2-0.3 4.3-3 6.4-2.1 2 3.5 3.9-8.6 5.5-1.7 3.3-7.5 5.4-2 5.4-1.8 0 4.3-1.5 1.2-3.5-6.7-2-1.7-4.5-1.7-6.5-12.5-2.1-4.5-3.6-10.4-3.6-6.7 0-4.7-0.4-4.5-0.9-4.8-0.6-8.9-1.3-10.3-1.8-8.9-0.6-1.7-1-4.4-1-4.9 0-1.3-1.4 6.7-2.8 8.2-1.4 0.8-2.8 6.8-2.8 8.2z"/>
					<path id="&lt;Path&gt;" class="s3" d="m376.2 29.2c0 0 1.1-2 2.5-4.8 0.8-1.4 1.6-2.9 2.4-4.4 0.8-2.9 1.7-3.6 2.4-4.5 1.5-9.2 2.6-6.7 2.6-4.8 0 3.3 0.6 2.9 1.5 0 0.9 5.1 2.2 9.7 3.4 6.8 1.2 0.8 2.5 6.9 3.4 4.3 0.9-0.5 1.5-5.8 1.5 2.5 0 1 0-3.5 0 0.8 0 10.6-0.1 0.9-0.1 7.3-0.1-4.5-0.1-3.8-0.2 7.5 0 4.1-0.1 5.2-0.1 7.5-0.1 4.6-0.2 8.1-0.2 8.1z"/>
					<path id="&lt;Path&gt;" class="s4" d="m80.7 235l49.6 27.7c0 0-0.6 0.3-1.7 0.7-1.1 0.9-2.6-0.7-4.2 1.8-0.8 1.1-1.7 2.8-2.6 0.6-0.8 0.2-1.7 0.2-2.6 1.5-0.9 0.7-1.7 0.4-2.5 1.2-0.8 2.9-1.5 0.3-2.2 0.8-0.9-1.8-1.6 1.2-2.1 1-0.5 1.5-0.8 1.5-0.8 0.2 0-0.3-1.1-2.9-2.8-0.4-0.9-2.5-1.9 1.2-3.1-0.3-0.5 0.1-1.1-0.9-1.7-1.2-0.6-0.4-1.3-0.6-1.9 0.6q-1 0.4-2 0.2-1-0.1-2-0.8c-1.4-0.5-2.7-1-4-0.4-2.6-1.8-5-0.3-6.8-0.9-1.7 3.2-2.8-1.3-2.8-0.3 0-0.3-1.3 0.4-3-1-1.8-0.6-3.9-2.4-5.7-1.7-1.7-1.4-3-1.2-3-0.9 0 2.4-0.8-2.9-2.1-2.2-1.2-1.7-2.8-2.7-4.4-4.9-1.6-2.2-3.2-3.6-4.4-4.9-1.2-1.4-2-2.3-2-2.3z"/>
					<g id="&lt;Group&gt;" style="mix-blend-mode: screen">
						<path id="&lt;Path&gt;" class="s5" d="m184.9 42.6q-0.7-1.2-1.5-2.7c-0.8-0.9-1.5-1.6-2.2-2.3 0.3 1.9 1.9 3.2 3.7 5z"/>
						<path id="&lt;Path&gt;" class="s6" d="m170.9 27c-0.6 1.8-0.9 2.9-0.9 3.6 0-0.2 2.8-2.3 5.5 3.1 2.3 1.2 4.6 3.7 5.3 3.6-1.3-1.4-2.3-2.6-2.3-4.4 0 1.7-2.8-1.6-5.6-3.1-0.7-1.3-1.4-2.2-2-2.8z"/>
						<path id="&lt;Path&gt;" class="s7" d="m188.3 46.9q0 0-0.3 0.2c0.2 0.1 0.3 0.1 0.3-0.2z"/>
						<path id="&lt;Path&gt;" class="s8" d="m0.7 93.3q-0.1 0.1-0.1 0.2c0 0.2 0 0 0.1-0.2z"/>
						<path id="&lt;Path&gt;" class="s9" d="m187.6 46.6q0.1 0.3 0.2 0.5 0.1 0 0.2 0-0.2-0.2-0.4-0.5z"/>
						<path id="&lt;Path&gt;" class="s10" d="m4.7 96.5q0 0 0-0.1-0.1 0.1-0.2 0.1 0.4 0.5 0.7 0.8-0.2-0.4-0.5-0.8z"/>
						<path id="&lt;Path&gt;" class="s11" d="m16 105.7q0.1 0.2 0.1 0.6 0.5-0.2 0.9 0-0.5-0.6-1-0.6z"/>
						<path id="&lt;Path&gt;" class="s12" d="m0.7 93.3q0.4-0.2 1.4-0.8c-0.7-0.6-1.1 0.4-1.4 0.8z"/>
						<path id="&lt;Path&gt;" class="s13" d="m12.3 90.7c1.7-1.9 3.7-3.7 5.7-2.1 2-2.4 4.1-2.2 6.2-3.8 2.1-1.2 4.2-2.3 6.2-3.5 4 0.2 7.7-5.7 10.4-6.1 2.7 0 4.4-4.7 4.4-2.6 0 0.1 2.2 0.1 5.1-1.9 2.9 3 6.6 0 9.5-3.6 3 0.8 5.2-1.2 5.2-1.9 0 3.4 1.8 3.4 4.6-3.5 2.8-5.7 6.5-5.3 10.2-7.6 3.7 1.1 7.4-4.1 10.2-7.6 2.8-1.2 4.6-3.2 4.6-3.5 0-4.7 1 0.7 2.7-0.8 1.7-1.1 4.3 1.5 7.4-0.5 3.1-1.3 6.8 3 10.9 2.5 0-0.8 2.6-6.6 6.1-3.5 3.5 0.3 7.8-6.2 11.3-6.5 3.5-4.2 6.1-7 6.1-3.6 0-1.9 1.2-0.5 3.1-4 0.9-1.8 2-0.9 3.1-4.4 1.2-0.5 2.4-4.6 3.7-4.5 1.2 1.2 2.4-1.8 3.6-4.8 1.2 1.8 2.2-1.8 3.2-4.2 1.8-2.4 3.1-6.3 3.1-4 0 3.2 3.7-0.8 7.4 5.5 1.7-0.4 3.4 0.4 4.8 1.6-0.2-1.6-3.8-6.4-7.4-5.4-3.7-6.3-7.4-2.4-7.4-5.6 0-2.3-1.3 1.7-3.1 4-1 2.4-2 6-3.2 4.2-1.2 3-2.4 6-3.6 4.8-1.3-0.1-2.5 4-3.7 4.5-1.1 3.5-2.2 2.6-3.1 4.4-1.9 3.5-3.1 2.2-3.1 4 0-3.4-2.6-0.6-6.1 3.6-3.5 0.3-7.8 6.8-11.3 6.5-3.5-3.1-6.1 2.7-6.1 3.5-4.1 0.5-7.8-3.8-10.9-2.5-3.1 2-5.6-0.6-7.4 0.5-1.7 1.5-2.7-3.9-2.7 0.8 0 0.3-1.8 2.3-4.6 3.5-2.8 3.5-6.5 8.7-10.2 7.6-3.7 2.3-7.4 1.9-10.2 7.7-2.8 6.8-4.6 6.8-4.6 3.4 0 0.7-2.2 2.7-5.2 2-2.9 3.5-6.6 6.5-9.5 3.5-2.9 2-5.1 2.1-5.1 1.9 0-2.1-1.7 2.6-4.4 2.6-2.7 0.4-6.4 6.3-10.4 6.1-2 1.2-4.1 2.3-6.2 3.5-2.1 1.6-4.2 1.4-6.2 3.9-2-1.7-4 0.1-5.7 2-1.8 1.8-3.4 1.8-4.7 4.1q-1.8 1-2.9 1.6 0 0.1 0 0.1c0.6 1 1.3 2.4 2.2 3.6q0.1 0 0.4 0.2 1.1-0.6 2.8-1.6c1.4-2.3 3-2.3 4.8-4.1z"/>
					</g>
					<g id="&lt;Group&gt;" style="mix-blend-mode: screen">
						<path id="&lt;Path&gt;" class="s14" d="m384.7 244.4q0.1-0.4 0.2-0.4c0-0.5-0.1-0.9-0.1-1.1 0-0.4-0.1 0.1-0.3 0.9q0.1 0.3 0.2 0.6z"/>
						<path id="&lt;Path&gt;" class="s15" d="m386.4 253.3c0.6 0.3 1 0.1 1 4.8 0-1.9 0.4-1.3 1 0.3-0.1-1.5-0.5-1.5-0.8-1.7-0.5-8-1.1-9.9-1.7-9.3 0.2 1.5 0.4 3.4 0.5 5.9z"/>
						<path id="&lt;Path&gt;" class="s16" d="m392.9 272.2q-0.4-1.7-0.8-4-0.5-1-0.9-2.1c0.5 2.7 1.1 4.6 1.7 6.1z"/>
						<path id="&lt;Path&gt;" class="s17" d="m400.9 285.6c-0.2 0.6-0.5 0.5-0.9-0.3q-0.1 0-0.1 0c1.3 4.3 2.2 5.5 2.2 2.1 0-0.1-0.4-1.3-1.2-1.8z"/>
						<path id="&lt;Path&gt;" class="s18" d="m398.6 280.7q-0.1-0.1-0.3-0.2 0.2 0.7 0.5 1.4 0 0 0.1 0-0.1-0.6-0.3-1.2z"/>
						<path id="&lt;Path&gt;" class="s19" d="m398.8 281.9c-0.9 0.1-2 1.1-3.2 3.9-1.6-6.9-3.5 5.2-5.6 1.8-2-1-4.1 1.8-6.3 2-2.2 2.3-4.3-2.5-6.4 1.7-2 0.7-3.9 1.7-5.5 2.1-3.2 2.4-5.4 5.3-5.4 1.8 0-3.7-2.3 1.5-5.4 3.2-3.2 3.4-7 3.1-10.2 5.9-3.1 2.5-5.4 3.1-5.4 3.2 0-6.2-2.3 1-5.4 1.6-3.2-1.1-7-0.4-10.2 3-3.1-1.8-5.4 0.2-5.4 1.6 0 3.2-2.3-2.1-5.5 2.9-3.1 4.7-7 0.9-10.1 5.3-3.1 1-5.4 2.7-5.4 2.9 0-2-1.6 4-3.1 6.8-1.5 3.9-3.1 3.7-3.1 6.8 0-0.3-4-0.2-8 0-4 2.4-8 0.6-8 0 0-2.7-4.4 3.4-8.7 2.5-4.3 2-8.6 4-8.6 2.5 0-4.2-1.7-1.3-4.1-3.5-2.4-1.5-5.7-6.5-8.9-7.7-3.3 0.8-6.5-4.9-8.9-7.6q-0.4-0.7-0.7-1.1c-1.5 0.6-2.3 1-2.3 1 0 0 1.7-0.8 4.1 3.5 2.4 2.7 5.7 8.4 8.9 7.6 3.3 1.2 6.5 6.1 8.9 7.7 2.5 2.1 4.1-0.7 4.1 3.4 0 1.5 4.3-0.4 8.6-2.4 4.4 0.8 8.7-5.2 8.7-2.5 0 0.6 4 2.4 8 0 4-0.3 8-0.3 8 0 0-3.1 1.6-2.9 3.1-6.8 1.6-2.8 3.1-8.8 3.1-6.8 0-0.2 2.3-1.9 5.5-2.9 3.1-4.5 7-0.7 10.1-5.3 3.1-5 5.4 0.3 5.4-2.9 0-1.4 2.4-3.4 5.5-1.6 3.1-3.4 7-4.1 10.1-3 3.1-0.6 5.4-7.9 5.4-1.6 0-0.1 2.4-0.7 5.5-3.2 3.1-2.8 7-2.5 10.1-6 3.1-1.6 5.4-6.9 5.4-3.2 0 3.6 2.2 0.7 5.4-1.7 1.7-0.4 3.5-1.4 5.6-2.1 2-4.2 4.2 0.6 6.3-1.7 2.2-0.3 4.3-3 6.4-2 2 3.4 3.9-8.7 5.5-1.8 1.2-2.9 2.3-3.8 3.2-3.9q-0.2-0.5-0.3-0.9-0.4-1-0.8-2.5z"/>
					</g>
					<path id="&lt;Path&gt;" class="s20" d="m128.3 261.6c-1 0.4-2.4-0.7-3.9 1.6-0.8 1.1-1.7 2.8-2.6 0.6-0.8 0.2-1.7 0.2-2.6 1.5-0.9 0.7-1.7 0.4-2.5 1.2-0.8 2.9-1.5 0.2-2.2 0.8-0.9-1.8-1.6 1.1-2.1 1-0.5 1.5-0.8 1.5-0.8 0.2 0-0.3-1.1-2.9-2.8-0.4-0.9-2.5-1.9 1.2-3.1-0.3-0.5 0-1.1-0.9-1.7-1.2-0.6-0.5-1.3-0.6-1.9 0.6q-1 0.3-2 0.2-1-0.1-2-0.8c-1.4-0.5-2.7-1-4-0.4-2.6-1.8-5-0.3-6.8-0.9-1.7 3.2-2.8-1.4-2.8-0.4 0-0.2-1.3 0.5-3-0.9-1.8-0.6-3.9-2.4-5.7-1.7-1.7-1.5-3-1.2-3-0.9 0 2.4-0.8-2.9-2.1-2.2-1.2-1.7-2.8-2.7-4.4-4.9-1.6-2.2-3.2-3.6-4.4-4.9q-0.5-0.6-0.9-1l-1.1 0.7c0 0 0.8 0.9 2 2.3 1.2 1.3 2.8 2.7 4.4 4.9 1.6 2.2 3.2 3.2 4.4 4.9 1.3-0.7 2.1 4.6 2.1 2.2 0-0.3 1.3-0.5 3 0.9 1.8-0.7 3.9 1.1 5.7 1.7 1.7 1.4 3 0.7 3 1 0-1 1.1 3.5 2.8 0.3 1.8 0.6 4.2-0.9 6.8 0.9 1.3-0.6 2.6-0.1 4 0.4q1 0.7 2 0.8 1 0.2 2-0.2c0.6-1.2 1.3-1 1.9-0.6 0.6 0.3 1.2 1.3 1.7 1.2 1.2 1.5 2.2-2.2 3.1 0.3 1.7-2.5 2.8 0.1 2.8 0.4 0 1.3 0.3 1.3 0.8-0.2 0.5 0.2 1.2-2.8 2.1-1 0.7-0.5 1.4 2.1 2.2-0.8 0.8-0.8 1.6-0.5 2.5-1.2 0.9-1.3 1.8-1.3 2.6-1.5 0.9 2.2 1.8 0.5 2.6-0.6 1.6-2.5 3.1-0.9 4.2-1.8 1.1-0.4 1.7-0.7 1.7-0.7z"/>
					<g id="&lt;Group&gt;">
						<path id="&lt;Path&gt;" class="s21" d="m378.7 27.3c0.8-1.4 1.6-2.9 2.4-4.4 0.8-2.9 1.7-3.7 2.4-4.6 1.5-9.2 2.6-6.6 2.6-4.8 0 3.4 0.6 2.9 1.5 0.1 0.9 5 2.2 9.7 3.4 6.7 1.2 0.9 2.5 6.9 3.4 4.4 0.8-0.4 1.4-4.4 1.5-0.4 0-2.9 0 1 0 0 0-8.3-0.6-3-1.5-2.5-0.9 2.6-2.2-3.5-3.4-4.3-1.2 2.9-2.5-1.7-3.4-6.8-0.9 2.9-1.5 3.3-1.5 0 0-1.9-1.1-4.4-2.6 4.8-0.7 0.9-1.6 1.6-2.4 4.5-0.8 1.5-1.6 3-2.4 4.4-1.4 2.8-2.5 4.8-2.5 4.8l0.9 1.2c0.4-0.8 1-1.9 1.6-3.1z"/>
					</g>
				</g>
			</g>
		</g>
	</g>
</svg>